<svg id="Layer_1" data-name="Layer 1" xmlns="http://www.w3.org/2000/svg" viewBox="0 0 344.39 222"><defs><style>.cls-1{fill:#b6b6bc;}.cls-2{fill:#0671bc;}.cls-3{fill:#676566;}</style></defs><title>logo_original</title><path class="cls-1" d="M94.3,1.25h7.77a9.33,9.33,0,0,0,1,.15c2.16.11,4.32.3,6.48.54,2.69.3,5.36.73,8,1.26a95.55,95.55,0,0,1,20.09,6.34A97.7,97.7,0,0,1,175.3,38.7,96.81,96.81,0,0,1,193,73.85a93.45,93.45,0,0,1,2.34,11.3,57.34,57.34,0,0,1,.71,7.18,5.32,5.32,0,0,0,.16.88v12.47c-.06.38-.14.76-.17,1.14,0,.6,0,1.21-.08,1.8q-.29,2.6-.64,5.19a64.43,64.43,0,0,1-2,9.7,4.8,4.8,0,0,1-.21.5c-11.08-2.89-21.67-1.8-31.59,3.91a39.51,39.51,0,0,0-19.23,25.21c-2.85,11.08-1.12,21.59,4.69,31.47-.21.14-.37.27-.55.37-1.1.61-2.2,1.25-3.32,1.83a97,97,0,0,1-39.31,10.68,9.81,9.81,0,0,0-1,.15H93.58a7.47,7.47,0,0,0-.88-.14c-3-.14-6-.47-9-.9a91.38,91.38,0,0,1-11.38-2.38A98.34,98.34,0,0,1,.78,111.83,98.61,98.61,0,0,1,1,85.1,94.25,94.25,0,0,1,3.34,74,98.46,98.46,0,0,1,62.25,8.07,95.63,95.63,0,0,1,82.83,2.49c2.62-.41,5.24-.74,7.88-.91l2.79-.19A8,8,0,0,0,94.3,1.25Zm41.48,178.92a51.64,51.64,0,0,1-2.17-8,50.12,50.12,0,0,1-.82-8.07,49.11,49.11,0,0,1,.54-8.19,48.64,48.64,0,0,1,9.5-22.35,49.08,49.08,0,0,1,5.52-6.08,49.2,49.2,0,0,1,13.65-9,47.92,47.92,0,0,1,7.66-2.65,49.87,49.87,0,0,1,8.09-1.35,58.28,58.28,0,0,1,8.17,0A88.87,88.87,0,0,0,140,20.82a89.07,89.07,0,1,0-4.26,159.35Z"/><path class="cls-2" d="M97.71,44.72c0,.18,0,.36,0,.54q0,51.39,0,102.79a1.19,1.19,0,0,0,.41,1q5.37,5,10.71,10c.13.12.24.26.36.39H65.37c0-.23,0-.45,0-.68q0-50.39,0-100.79A1.61,1.61,0,0,0,65,56.92c-1.2-1.53-2.38-3.07-3.56-4.61L55.9,45.16a3.09,3.09,0,0,0-.38-.35s0-.09,0-.09H97.71Z"/><path class="cls-2" d="M176.75,158l-.54,0c-11.07,0-33.49,0-33.61,0s-29.54-39.39-44.1-58.88a.67.67,0,0,1-.09-.8,144.3,144.3,0,0,1,11-19.69,100.5,100.5,0,0,1,13-15.85A71.13,71.13,0,0,1,139,50.47a51.84,51.84,0,0,1,12.05-4.63,34.17,34.17,0,0,1,6-.92h.52c0,.21-.21.29-.33.41a23.22,23.22,0,0,0-4.78,6.3A22.06,22.06,0,0,0,150.18,59a27.88,27.88,0,0,0,1.6,13.26l.09.27a2.38,2.38,0,0,1-.2.18,52,52,0,0,0-10.45,10.36,76.1,76.1,0,0,0-10.67,19c-.05.14-.1.28-.16.44l1.85,2.22,25,29.88,19.16,22.89.32.36Z"/><path class="cls-3" d="M44.46,217.24q.79.55,1,.69t1,.47l-1.17,2.35a13.61,13.61,0,0,1-1.74-1,14.87,14.87,0,0,1-1.2-.88,8.79,8.79,0,0,1-3.48.6A7,7,0,0,1,34,217.84a6.86,6.86,0,0,1-2.11-5.36,7.06,7.06,0,0,1,1.85-5.21,7,7,0,0,1,5.16-1.86,7.11,7.11,0,0,1,5.22,1.82,7,7,0,0,1,1.84,5.2A7.36,7.36,0,0,1,44.46,217.24Zm-3.21-2.15a5.67,5.67,0,0,0,.5-2.69,4.47,4.47,0,0,0-.76-2.94,2.64,2.64,0,0,0-2.11-.88,2.56,2.56,0,0,0-2,.9,4.22,4.22,0,0,0-.78,2.81,4.9,4.9,0,0,0,.76,3.12,2.58,2.58,0,0,0,2.08.9,3.75,3.75,0,0,0,.81-.08,5.19,5.19,0,0,0-1.67-1l.66-1.51a3.59,3.59,0,0,1,.87.25,11.17,11.17,0,0,1,1.21.78Z"/><path class="cls-3" d="M57,205.64h4.19v8.09a6.81,6.81,0,0,1-.38,2.27,4.91,4.91,0,0,1-1.18,1.87A4.69,4.69,0,0,1,58,219a8.46,8.46,0,0,1-2.94.45,18.48,18.48,0,0,1-2.16-.14,5.66,5.66,0,0,1-2-.55,4.9,4.9,0,0,1-1.44-1.17A4.3,4.3,0,0,1,48.6,216a8.1,8.1,0,0,1-.39-2.3v-8.09H52.4v8.28a2.36,2.36,0,0,0,.62,1.74,2.65,2.65,0,0,0,3.41,0,2.36,2.36,0,0,0,.62-1.74Z"/><path class="cls-3" d="M71.71,217H66.94l-.66,2.24H62l5.1-13.58h4.58l5.1,13.58H72.39ZM70.84,214l-1.5-4.88L67.85,214Z"/><path class="cls-3" d="M78.11,205.64h4.2v10.23h6.55v3.34H78.11Z"/><path class="cls-3" d="M90.93,205.64h4.2v13.58h-4.2Z"/><path class="cls-3" d="M97.19,205.64h12.75V209h-4.28v10.23h-4.2V209H97.19Z"/><path class="cls-3" d="M110.47,205.64h4.66l2.74,4.58,2.74-4.58h4.64L120,213.53v5.69h-4.2v-5.69Z"/><path class="cls-3" d="M139.75,214.3v-2.82h6.48v5.79a13.28,13.28,0,0,1-3.29,1.73,11.17,11.17,0,0,1-3.39.46,8.25,8.25,0,0,1-3.94-.82,5.64,5.64,0,0,1-2.36-2.45,8.07,8.07,0,0,1-.84-3.74,7.81,7.81,0,0,1,.92-3.87,5.94,5.94,0,0,1,2.69-2.5,8.74,8.74,0,0,1,3.71-.66,10.43,10.43,0,0,1,3.37.41,4.37,4.37,0,0,1,1.85,1.26,5.62,5.62,0,0,1,1.11,2.17l-4,.72a2.19,2.19,0,0,0-.85-1.18,2.65,2.65,0,0,0-1.52-.41,2.75,2.75,0,0,0-2.2,1,4.61,4.61,0,0,0-.82,3,4.76,4.76,0,0,0,.83,3.15,2.91,2.91,0,0,0,2.31.94,4.39,4.39,0,0,0,1.34-.2,7.24,7.24,0,0,0,1.46-.69V214.3Z"/><path class="cls-3" d="M148.78,219.22V205.64h7a10.16,10.16,0,0,1,3,.33,3.17,3.17,0,0,1,1.66,1.24,3.83,3.83,0,0,1-1.18,5.48,5.07,5.07,0,0,1-1.47.54,4.19,4.19,0,0,1,1.09.5,4.24,4.24,0,0,1,.67.71,5.34,5.34,0,0,1,.59.84l2,3.93H157.4l-2.24-4.15a3.17,3.17,0,0,0-.76-1,1.76,1.76,0,0,0-1-.31H153v5.51Zm4.21-8.08h1.77a6.32,6.32,0,0,0,1.11-.19,1.11,1.11,0,0,0,.68-.43,1.38,1.38,0,0,0-.15-1.8,2.52,2.52,0,0,0-1.57-.35H153Z"/><path class="cls-3" d="M162.63,212.44a6.43,6.43,0,0,1,7-7,7.1,7.1,0,0,1,5.22,1.82,6.86,6.86,0,0,1,1.83,5.1,8.36,8.36,0,0,1-.8,3.9,5.71,5.71,0,0,1-2.32,2.37,7.64,7.64,0,0,1-3.77.85,8.68,8.68,0,0,1-3.8-.73,5.72,5.72,0,0,1-2.44-2.32A7.69,7.69,0,0,1,162.63,212.44Zm4.2,0a4.55,4.55,0,0,0,.76,3,2.89,2.89,0,0,0,4.17,0,5,5,0,0,0,.74-3.16,4.2,4.2,0,0,0-.77-2.8,2.64,2.64,0,0,0-2.1-.88,2.55,2.55,0,0,0-2,.9A4.57,4.57,0,0,0,166.82,212.46Z"/><path class="cls-3" d="M177.23,205.64h4l1.43,7.6,2.1-7.6h4l2.11,7.59,1.44-7.59h4l-3,13.58h-4.11l-2.38-8.55-2.37,8.55h-4.11Z"/><path class="cls-3" d="M196.65,205.64H209.4V209h-4.28v10.23h-4.2V209h-4.28Z"/><path class="cls-3" d="M211.32,205.64h4.2v4.75h4.58v-4.75h4.21v13.58H220.1v-5.49h-4.58v5.49h-4.2Z"/><path class="cls-3" d="M233.41,205.64h7a4.77,4.77,0,0,1,3.41,1.08,4.06,4.06,0,0,1,1.13,3.08,4.19,4.19,0,0,1-1.24,3.21,5.36,5.36,0,0,1-3.77,1.16h-2.3v5h-4.21Zm4.21,5.79h1a2.64,2.64,0,0,0,1.7-.42,1.36,1.36,0,0,0,.49-1.08,1.51,1.51,0,0,0-.43-1.08,2.21,2.21,0,0,0-1.6-.44h-1.19Z"/><path class="cls-3" d="M253.86,217H249.1l-.66,2.24h-4.28l5.1-13.58h4.58l5.1,13.58h-4.39ZM253,214l-1.5-4.88L250,214Z"/><path class="cls-3" d="M260.32,219.22V205.64h7a10.16,10.16,0,0,1,3,.33,3.17,3.17,0,0,1,1.66,1.24,3.83,3.83,0,0,1-1.18,5.48,5.07,5.07,0,0,1-1.47.54,4.19,4.19,0,0,1,1.09.5,4.24,4.24,0,0,1,.67.71,5.31,5.31,0,0,1,.59.84l2,3.93h-4.74l-2.24-4.15a3.17,3.17,0,0,0-.76-1,1.76,1.76,0,0,0-1-.31h-.37v5.51Zm4.21-8.08h1.77a6.32,6.32,0,0,0,1.11-.19,1.11,1.11,0,0,0,.68-.43,1.38,1.38,0,0,0-.15-1.8,2.52,2.52,0,0,0-1.57-.35h-1.84Z"/><path class="cls-3" d="M273.9,205.64h12.75V209h-4.28v10.23h-4.2V209H273.9Z"/><path class="cls-3" d="M288.58,205.64h3.92l5.11,7.51v-7.51h4v13.58h-4l-5.08-7.46v7.46h-3.95Z"/><path class="cls-3" d="M304.35,205.64h11.24v2.9h-7v2.16h6.53v2.77h-6.53v2.68h7.24v3.08H304.35Z"/><path class="cls-3" d="M318.11,219.22V205.64h7a10.16,10.16,0,0,1,3,.33,3.17,3.17,0,0,1,1.66,1.24,3.83,3.83,0,0,1-1.18,5.48,5.07,5.07,0,0,1-1.47.54,4.19,4.19,0,0,1,1.09.5,4.24,4.24,0,0,1,.67.71,5.31,5.31,0,0,1,.59.84l2,3.93h-4.74l-2.24-4.15a3.17,3.17,0,0,0-.76-1,1.76,1.76,0,0,0-1-.31h-.37v5.51Zm4.21-8.08h1.77a6.32,6.32,0,0,0,1.11-.19,1.11,1.11,0,0,0,.68-.43,1.38,1.38,0,0,0-.15-1.8,2.52,2.52,0,0,0-1.57-.35h-1.84Z"/><path class="cls-3" d="M332.08,214.73l4-.25a3,3,0,0,0,.53,1.48,2.22,2.22,0,0,0,1.85.82,2.05,2.05,0,0,0,1.38-.42,1.26,1.26,0,0,0,.49-1,1.25,1.25,0,0,0-.46-.94,5.37,5.37,0,0,0-2.15-.79,9.13,9.13,0,0,1-3.94-1.65,3.31,3.31,0,0,1-1.19-2.62,3.56,3.56,0,0,1,.61-2,4,4,0,0,1,1.82-1.46,8.52,8.52,0,0,1,3.34-.53,6.83,6.83,0,0,1,4,1,4.18,4.18,0,0,1,1.63,3.08l-4,.23a1.85,1.85,0,0,0-2.06-1.75,1.68,1.68,0,0,0-1.1.31,1,1,0,0,0-.37.75.76.76,0,0,0,.31.58,3.43,3.43,0,0,0,1.41.5,17.62,17.62,0,0,1,3.94,1.2,4.14,4.14,0,0,1,1.73,1.51,3.81,3.81,0,0,1,.54,2,4.3,4.3,0,0,1-.72,2.41,4.52,4.52,0,0,1-2,1.67,8.16,8.16,0,0,1-3.27.57q-3.46,0-4.8-1.33A5.26,5.26,0,0,1,332.08,214.73Z"/><path class="cls-2" d="M174.65,141.65l7.77-.15v10.8a5.29,5.29,0,0,0,.14,1.53,1.25,1.25,0,0,0,.52.62,1.7,1.7,0,0,0,.94.24,4.49,4.49,0,0,0,1.76-.4q.37-.17,1.95-1.18v-6.49a3.4,3.4,0,0,0-.13-1.17.91.91,0,0,0-.39-.46,2.24,2.24,0,0,0-1-.14h-1v-3.21l7.81-.15v11.92a3.74,3.74,0,0,0,.11,1.17.67.67,0,0,0,.35.35,3.66,3.66,0,0,0,1.16.11h.88v3.21l-7.31.2v-2a11.75,11.75,0,0,1-2.94,1.62,8.61,8.61,0,0,1-3,.54,6,6,0,0,1-2.2-.39,5,5,0,0,1-1.69-1,4.14,4.14,0,0,1-1-1.54,6.51,6.51,0,0,1-.33-2.26v-6.86a3.91,3.91,0,0,0-.11-1.2.74.74,0,0,0-.36-.37,2.9,2.9,0,0,0-1.07-.12h-.92Z"/><path class="cls-2" d="M207.63,148.19V147a4.24,4.24,0,0,0-.18-1.52,1.5,1.5,0,0,0-.67-.69,2.4,2.4,0,0,0-1.2-.27,2.63,2.63,0,0,0-1,.18,2,2,0,0,0-.72.47,4.07,4.07,0,0,0-.62,1.1,3.49,3.49,0,0,1-1.07,1.48,2.45,2.45,0,0,1-1.47.45,2.4,2.4,0,0,1-1.75-.67,2.21,2.21,0,0,1-.68-1.65,3.07,3.07,0,0,1,.7-2,6.64,6.64,0,0,1,2.78-1.88,11.22,11.22,0,0,1,4.16-.73,9.35,9.35,0,0,1,3.94.75,5,5,0,0,1,2.26,1.79,6.18,6.18,0,0,1,.64,3.17v6a5.1,5.1,0,0,0,.12,1.41,1.12,1.12,0,0,0,.5.54,1.6,1.6,0,0,0,.85.23,4.13,4.13,0,0,0,1.25-.27v3.25a9,9,0,0,1-2.71.45,6.2,6.2,0,0,1-2.61-.5,4.63,4.63,0,0,1-1.81-1.5,13.76,13.76,0,0,1-3,1.54,8.19,8.19,0,0,1-2.62.46,5.48,5.48,0,0,1-3.85-1.34,4.3,4.3,0,0,1-1.46-3.3,4.21,4.21,0,0,1,.51-2,4.78,4.78,0,0,1,1.52-1.63,10,10,0,0,1,3.11-1.24A30.32,30.32,0,0,1,207.63,148.19Zm0,2.76a17.69,17.69,0,0,0-3.08.64,2.78,2.78,0,0,0-1.28.82,1.62,1.62,0,0,0-.38,1,1.44,1.44,0,0,0,.5,1.12,1.94,1.94,0,0,0,1.35.45,3.57,3.57,0,0,0,1.27-.28,10.52,10.52,0,0,0,1.62-.83Z"/><path class="cls-2" d="M224.79,133.82V153.3a4.32,4.32,0,0,0,.08,1.17.8.8,0,0,0,.52.48,5.11,5.11,0,0,0,1.35.1h.58v3.21H217V155h.63a4,4,0,0,0,1.28-.12.81.81,0,0,0,.42-.4,3.45,3.45,0,0,0,.13-1.22V138.45H217v-3.21a21.33,21.33,0,0,0,6.16-1.42Z"/><path class="cls-2" d="M236.75,141.25v12.3a3.32,3.32,0,0,0,.1,1.08.66.66,0,0,0,.36.31,3.75,3.75,0,0,0,1.16.11h.9v3.21H229V155h.88A4,4,0,0,0,231,155a.65.65,0,0,0,.36-.31,2.11,2.11,0,0,0,.12-.87v-7.94H229v-3.13a20,20,0,0,0,2.52-.28,17.38,17.38,0,0,0,2.16-.52,10.43,10.43,0,0,0,1.52-.67Zm-2.7-7.43a3.11,3.11,0,1,1-2.13.91A2.94,2.94,0,0,1,234.05,133.82Z"/><path class="cls-2" d="M248.68,135.94v5.71H254v3.55h-5.36V151a9.21,9.21,0,0,0,.21,2.52,1.72,1.72,0,0,0,.77.89,3.27,3.27,0,0,0,1.71.45,6.17,6.17,0,0,0,3.41-1.12v3.56a13.46,13.46,0,0,1-2.62,1,11.13,11.13,0,0,1-2.54.27,8.77,8.77,0,0,1-2.74-.39,5.89,5.89,0,0,1-2-1.12,4,4,0,0,1-1.17-1.54,6.67,6.67,0,0,1-.32-2.36v-7.92h-2.5V142a6.63,6.63,0,0,0,2.28-1.24,6.2,6.2,0,0,0,1.52-1.94,8.79,8.79,0,0,0,.79-2.88Z"/><path class="cls-2" d="M266.95,148.19V147a4.25,4.25,0,0,0-.18-1.52,1.51,1.51,0,0,0-.67-.69,2.4,2.4,0,0,0-1.2-.27,2.62,2.62,0,0,0-1,.18,2,2,0,0,0-.72.47,4.07,4.07,0,0,0-.62,1.1,3.49,3.49,0,0,1-1.07,1.48,2.46,2.46,0,0,1-1.47.45,2.4,2.4,0,0,1-1.75-.67,2.21,2.21,0,0,1-.68-1.65,3.07,3.07,0,0,1,.7-2,6.64,6.64,0,0,1,2.78-1.88,11.22,11.22,0,0,1,4.16-.73,9.35,9.35,0,0,1,3.94.75,5,5,0,0,1,2.26,1.79,6.18,6.18,0,0,1,.64,3.17v6a5.11,5.11,0,0,0,.12,1.41,1.12,1.12,0,0,0,.5.54,1.6,1.6,0,0,0,.85.23,4.13,4.13,0,0,0,1.25-.27v3.25a9,9,0,0,1-2.71.45,6.21,6.21,0,0,1-2.61-.5,4.63,4.63,0,0,1-1.81-1.5,13.76,13.76,0,0,1-3,1.54,8.19,8.19,0,0,1-2.62.46,5.47,5.47,0,0,1-3.85-1.34,4.3,4.3,0,0,1-1.47-3.3,4.21,4.21,0,0,1,.51-2,4.78,4.78,0,0,1,1.51-1.63,10,10,0,0,1,3.11-1.24A30.32,30.32,0,0,1,266.95,148.19Zm0,2.76a17.69,17.69,0,0,0-3.08.64,2.78,2.78,0,0,0-1.28.82,1.62,1.62,0,0,0-.38,1,1.44,1.44,0,0,0,.5,1.12,1.94,1.94,0,0,0,1.35.45,3.57,3.57,0,0,0,1.27-.28,10.52,10.52,0,0,0,1.62-.83Z"/><path class="cls-2" d="M284.15,135.94v5.71h5.36v3.55h-5.36V151a9.21,9.21,0,0,0,.21,2.52,1.72,1.72,0,0,0,.77.89,3.27,3.27,0,0,0,1.71.45,6.17,6.17,0,0,0,3.41-1.12v3.56a13.46,13.46,0,0,1-2.62,1,11.13,11.13,0,0,1-2.54.27,8.77,8.77,0,0,1-2.74-.39,5.89,5.89,0,0,1-2-1.12,4,4,0,0,1-1.17-1.54,6.67,6.67,0,0,1-.32-2.36v-7.92h-2.5V142a6.63,6.63,0,0,0,2.28-1.24,6.2,6.2,0,0,0,1.52-1.94,8.79,8.79,0,0,0,.79-2.88Z"/><path class="cls-2" d="M307.4,152.1l2.28,2.3a13.24,13.24,0,0,1-4,3.25,9.81,9.81,0,0,1-4.4,1,8.73,8.73,0,0,1-6.39-2.57,8.43,8.43,0,0,1-2.6-6.22,8.52,8.52,0,0,1,1.17-4.39,8.22,8.22,0,0,1,3.23-3.11,9.63,9.63,0,0,1,4.68-1.12,9,9,0,0,1,3,.48,7.24,7.24,0,0,1,2.39,1.38,6.9,6.9,0,0,1,1.65,2.17,9.67,9.67,0,0,1,.86,2.64,16.58,16.58,0,0,1,.1,2.16h-11.2a5,5,0,0,0,1.24,3.42,3.87,3.87,0,0,0,3,1.31,5.38,5.38,0,0,0,2.43-.67A9.7,9.7,0,0,0,307.4,152.1Zm-3.33-4.81a3.82,3.82,0,0,0-.48-1.57,2.64,2.64,0,0,0-1-.92,2.58,2.58,0,0,0-1.28-.34,2.92,2.92,0,0,0-2.4,1.3,3.58,3.58,0,0,0-.51,1.53Z"/><path class="cls-2" d="M319.71,141.25v2.21a11.12,11.12,0,0,1,2.94-1.66,8.78,8.78,0,0,1,3-.55,6.14,6.14,0,0,1,1.89.29,5,5,0,0,1,1.51.76,4.73,4.73,0,0,1,1.11,1.27,12,12,0,0,1,3.09-1.77,8.71,8.71,0,0,1,3-.54,5.86,5.86,0,0,1,2.41.48,4.7,4.7,0,0,1,1.76,1.31,4.12,4.12,0,0,1,.87,1.79,8.64,8.64,0,0,1,.13,1.75v6.89a3,3,0,0,0,.12,1.1.83.83,0,0,0,.42.38,4.11,4.11,0,0,0,1.22.1H344v3.21h-9.71V155a5,5,0,0,0,1.35-.11.76.76,0,0,0,.41-.35,2.65,2.65,0,0,0,.13-1.06v-6.05a4.34,4.34,0,0,0-.14-1.39,1.25,1.25,0,0,0-.55-.58,1.89,1.89,0,0,0-1-.24,3.89,3.89,0,0,0-1.4.29,13.09,13.09,0,0,0-2.22,1.28v6.52a3.34,3.34,0,0,0,.13,1.22.86.86,0,0,0,.46.38,5.54,5.54,0,0,0,1.3.1v3.21h-9.11V155a5.54,5.54,0,0,0,1.38-.12.72.72,0,0,0,.38-.37,3.36,3.36,0,0,0,.13-1.21v-5.7a4.24,4.24,0,0,0-.23-1.74,1.37,1.37,0,0,0-1.3-.65,4.57,4.57,0,0,0-2,.48q-.27.13-1.37.86l-.38.25v6.5a3.93,3.93,0,0,0,.1,1.16.79.79,0,0,0,.39.38,2.4,2.4,0,0,0,1,.15h.45v3.21H312.5V155h.65a4.47,4.47,0,0,0,1.29-.11.75.75,0,0,0,.39-.38,3.37,3.37,0,0,0,.13-1.2v-7.48H312.5v-3.21a18.28,18.28,0,0,0,5.64-1.42Z"/></svg>